<svg width="82" height="80" viewBox="0 0 82 80" fill="none" xmlns="http://www.w3.org/2000/svg">
<path d="M69.8956 55.4861C70.6999 51.3192 70.9919 46.6655 71.3454 41.4179C72.2179 30.3807 69.555 20.2813 76.4538 11.6684C77.9976 9.74391 79.9599 8.18293 82 6.81017C81.2054 5.20051 78.5847 0.455911 76.8008 0.124893C75.0169 -0.206126 70.9594 2.2895 69.5193 3.51946C67.223 5.4861 65.8964 7.55659 64.5829 10.2404C64.2196 10.9804 63.7785 13.1028 62.9644 13.2488C61.1351 13.5798 61.0994 11.3795 60.4637 10.1625C59.1015 7.55334 57.0257 4.87923 54.8396 2.91583C54.1877 2.32195 51.3205 0.0210436 50.6913 0.0015719C48.1517 -0.066579 45.4694 2.09153 44.7591 4.48655C44.5159 5.30761 44.2175 6.927 44.451 7.7221C44.5645 8.10179 47.3279 10.3735 47.9214 11.0485C50.7757 14.2841 52.8482 18.8729 53.8991 23.0431C54.298 24.6203 55.2613 29.2026 54.7975 30.5656C54.4829 31.4905 52.7931 31.3867 52.4622 30.3093C52.0925 29.0988 52.1346 26.9893 51.8525 25.5776C51.6935 24.7761 51.2946 22.7705 50.8502 22.209C50.3443 21.5697 47.9052 20.2748 47.0652 19.9244C41.0227 17.4125 34.471 18.2822 28.3734 20.0444C28.2631 20.4663 28.5518 20.5312 28.7366 20.7714C30.1183 22.5952 32.0482 24.2179 33.8807 25.5841C34.9705 26.3954 38.0031 27.4664 37.2376 29.0306C36.4722 30.5948 34.1532 28.8262 33.1963 28.2096C29.4697 25.8081 25.7981 21.745 23.5634 17.9285C21.2087 13.9044 19.5967 9.17923 19.1037 4.53523C15.4387 2.283 9.14318 3.73689 9.43509 8.74111C9.66537 12.6582 12.5034 18.6976 14.5824 22.0565C15.3284 23.2605 17.9977 26.1942 17.6474 27.3982C17.5047 27.7942 17.2323 27.9759 16.8301 28.0505C15.377 28.3231 13.152 27.9305 11.5239 28.0862C7.27173 28.4919 2.7342 30.7604 0 34.0413L4.48889 41.155C6.76576 40.3339 9.04913 39.4285 11.4979 39.2338C18.9286 38.6431 24.1472 41.7878 28.3247 47.6553C28.7269 48.2232 30.0373 50.7643 30.2351 50.9071C31.9638 52.1305 37.0625 52.1662 39.1837 52.1143C40.0075 52.0948 41.613 51.4231 42.2325 52.2019C42.9104 53.7824 42.2455 54.188 40.8119 54.4704C37.896 55.0415 34.6202 54.8598 31.7725 54.0485C32.1001 55.4699 34.3834 60.2243 33.8385 61.3341C33.4428 62.1422 32.1066 62.3012 31.5746 61.4088C31.0427 60.5163 30.5108 57.9234 30.0113 56.6577C28.9183 53.8862 27.6825 51.0271 25.9051 48.6224C25.6814 48.3173 24.5202 46.8277 24.3645 46.7628C23.904 46.5681 24.0175 47.0614 23.9396 47.2983C23.492 48.6743 22.039 54.0809 20.4692 54.2984C20.054 54.3568 19.561 54.2205 19.2075 53.9901C18.2766 53.0652 20.1675 50.6702 20.6119 49.5603C21.2606 47.9344 21.5947 46.2241 21.7957 44.4911C19.6194 42.7452 16.8398 41.8332 14.0699 41.6807C10.5022 58.8483 22.0228 82.435 42.093 79.7966C43.6142 79.5953 45.0737 79.0566 46.5852 78.8262L49.2415 78.2161C49.2415 78.2161 66.6716 72.2188 69.8988 55.4926L69.8956 55.4861Z" fill="white"/>
</svg>
