<?xml version="1.0" encoding="UTF-8"?>
<svg xmlns="http://www.w3.org/2000/svg" width="512" height="512" viewBox="0 0 512 512">
  <!-- Full-bleed "1000" icon, green shapes, transparent background -->
  <g fill="#00C853">
    <!-- 1 -->
    <path d="
      M 66 56
      H 156
      V 456
      H 66
      Z"/>
    <path d="
      M 48 56
      H 216
      V 120
      H 48
      Z"/>

    <!-- 0 0 0 -->
    <path fill-rule="evenodd" d="
      M 232 56 H 328 C 368 56 392 80 392 120 V 392
      C 392 432 368 456 328 456 H 232
      C 192 456 168 432 168 392 V 120
      C 168 80 192 56 232 56 Z
      M 232 120 H 328 V 392 H 232 Z

      M 360 56 H 456 C 496 56 520 80 520 120 V 392
      C 520 432 496 456 456 456 H 360
      C 320 456 296 432 296 392 V 120
      C 296 80 320 56 360 56 Z
      M 360 120 H 456 V 392 H 360 Z

      M 488 56 H 584 C 624 56 648 80 648 120 V 392
      C 648 432 624 456 584 456 H 488
      C 448 456 424 432 424 392 V 120
      C 424 80 448 56 488 56 Z
      M 488 120 H 584 V 392 H 488 Z
    "/>
  </g>
</svg>
